<?xml version="1.0" encoding="UTF-8" standalone="no"?>
<!DOCTYPE svg PUBLIC "-//W3C//DTD SVG 1.1//EN"
 "http://www.w3.org/Graphics/SVG/1.1/DTD/svg11.dtd">
<!-- Generated by graphviz version 2.40.1 (20161225.0304)
 -->
<!-- Title: graph_ad Pages: 1 -->
<svg width="720pt" height="223pt" viewBox="0.00 0.00 720.00 223.05" 
    xmlns="http://www.w3.org/2000/svg" 
    xmlns:xlink="http://www.w3.org/1999/xlink">
    <g id="graph0" class="graph" transform="scale(.4738 .4738) rotate(0) translate(4 466.8)">
        <title>graph_ad</title>
        <polygon fill="#ffffff" stroke="transparent" points="-4,4 -4,-466.8 1515.7517,-466.8 1515.7517,4 -4,4"/>
        <!-- 8 | header -->
        <g id="node1" class="node">
            <title>8 | header</title>
            <polygon fill="none" stroke="#000000" points="83.3426,-462.8 .2184,-462.8 .2184,-426.8 83.3426,-426.8 83.3426,-462.8"/>
            <text text-anchor="middle" x="41.7805" y="-439.4" font-family="Times,serif" font-size="18.00" fill="#000000">8 | header</text>
        </g>
        <!-- 2 -->
        <g id="node2" class="node">
            <title>2</title>
            <polygon fill="none" stroke="#000000" points="155.7805,-462.8 101.7805,-462.8 101.7805,-426.8 155.7805,-426.8 155.7805,-462.8"/>
            <text text-anchor="middle" x="128.7805" y="-439.4" font-family="Times,serif" font-size="18.00" fill="#000000">2</text>
        </g>
        <!-- 4 | key_len1 -->
        <g id="node3" class="node">
            <title>4 | key_len1</title>
            <polygon fill="none" stroke="#000000" points="275.3622,-462.8 174.1988,-462.8 174.1988,-426.8 275.3622,-426.8 275.3622,-462.8"/>
            <text text-anchor="middle" x="224.7805" y="-439.4" font-family="Times,serif" font-size="18.00" fill="#000000">4 | key_len1</text>
        </g>
        <!-- key_len | key_data1 -->
        <g id="node4" class="node">
            <title>key_len | key_data1</title>
            <polygon fill="none" stroke="#000000" points="451.3347,-462.8 294.2263,-462.8 294.2263,-426.8 451.3347,-426.8 451.3347,-462.8"/>
            <text text-anchor="middle" x="372.7805" y="-439.4" font-family="Times,serif" font-size="18.00" fill="#000000">key_len | key_data1</text>
        </g>
        <!-- key_data2 -->
        <g id="node5" class="node">
            <title>key_data2</title>
            <polygon fill="none" stroke="#000000" points="416.7533,-357.2 328.8077,-357.2 328.8077,-321.2 416.7533,-321.2 416.7533,-357.2"/>
            <text text-anchor="middle" x="372.7805" y="-333.8" font-family="Times,serif" font-size="18.00" fill="#000000">key_data2</text>
        </g>
        <!-- key_len | key_data1&#45;&gt;key_data2 -->
        <g id="edge1" class="edge">
            <title>key_len | key_data1&#45;&gt;key_data2</title>
            <path fill="none" stroke="#000000" d="M372.7805,-426.4059C372.7805,-410.1279 372.7805,-386.1223 372.7805,-367.4163"/>
            <polygon fill="#000000" stroke="#000000" points="376.2806,-367.3833 372.7805,-357.3833 369.2806,-367.3834 376.2806,-367.3833"/>
            <text text-anchor="middle" x="425.1076" y="-387.8" font-family="Times,serif" font-size="14.00" fill="#000000">everybyte ^= 0x64</text>
        </g>
        <!-- key_data3 -->
        <g id="node6" class="node">
            <title>key_data3</title>
            <polygon fill="none" stroke="#000000" points="416.7533,-251.6 328.8077,-251.6 328.8077,-215.6 416.7533,-215.6 416.7533,-251.6"/>
            <text text-anchor="middle" x="372.7805" y="-228.2" font-family="Times,serif" font-size="18.00" fill="#000000">key_data3</text>
        </g>
        <!-- key_data2&#45;&gt;key_data3 -->
        <g id="edge2" class="edge">
            <title>key_data2&#45;&gt;key_data3</title>
            <path fill="none" stroke="#000000" d="M372.7805,-320.8059C372.7805,-304.5279 372.7805,-280.5223 372.7805,-261.8163"/>
            <polygon fill="#000000" stroke="#000000" points="376.2806,-261.7833 372.7805,-251.7833 369.2806,-261.7834 376.2806,-261.7833"/>
            <text text-anchor="middle" x="401.9446" y="-282.2" font-family="Times,serif" font-size="14.00" fill="#000000">AES&#45;ECB</text>
        </g>
        <!-- key_data4 -->
        <g id="node7" class="node">
            <title>key_data4</title>
            <polygon fill="none" stroke="#000000" points="416.7533,-135.4 328.8077,-135.4 328.8077,-99.4 416.7533,-99.4 416.7533,-135.4"/>
            <text text-anchor="middle" x="372.7805" y="-112" font-family="Times,serif" font-size="18.00" fill="#000000">key_data4</text>
        </g>
        <!-- key_data3&#45;&gt;key_data4 -->
        <g id="edge3" class="edge">
            <title>key_data3&#45;&gt;key_data4</title>
            <path fill="none" stroke="#000000" d="M372.7805,-215.4437C372.7805,-196.7688 372.7805,-167.4225 372.7805,-145.6986"/>
            <polygon fill="#000000" stroke="#000000" points="376.2806,-145.4287 372.7805,-135.4288 369.2806,-145.4288 376.2806,-145.4287"/>
            <text text-anchor="middle" x="410.878" y="-185" font-family="Times,serif" font-size="14.00" fill="#000000">header off</text>
            <text text-anchor="middle" x="410.878" y="-168.2" font-family="Times,serif" font-size="14.00" fill="#000000">unpad(pcks7)</text>
        </g>
        <!-- Sbox -->
        <g id="node8" class="node">
            <title>Sbox</title>
            <polygon fill="none" stroke="#000000" points="399.7805,-36 345.7805,-36 345.7805,0 399.7805,0 399.7805,-36"/>
            <text text-anchor="middle" x="372.7805" y="-12.6" font-family="Times,serif" font-size="18.00" fill="#000000">Sbox</text>
        </g>
        <!-- key_data4&#45;&gt;Sbox -->
        <g id="edge4" class="edge">
            <title>key_data4&#45;&gt;Sbox</title>
            <path fill="none" stroke="#000000" d="M372.7805,-99.1685C372.7805,-84.4562 372.7805,-63.4941 372.7805,-46.5579"/>
            <polygon fill="#000000" stroke="#000000" points="376.2806,-46.1159 372.7805,-36.1159 369.2806,-46.1159 376.2806,-46.1159"/>
            <text text-anchor="middle" x="401.365" y="-58.2" font-family="Times,serif" font-size="14.00" fill="#000000">RC4 KSA</text>
        </g>
        <!-- 4 | meta_len -->
        <g id="node9" class="node">
            <title>4 | meta_len</title>
            <polygon fill="none" stroke="#000000" points="571.3568,-462.8 470.2042,-462.8 470.2042,-426.8 571.3568,-426.8 571.3568,-462.8"/>
            <text text-anchor="middle" x="520.7805" y="-439.4" font-family="Times,serif" font-size="18.00" fill="#000000">4 | meta_len</text>
        </g>
        <!-- meta_len | meta_data1 -->
        <g id="node10" class="node">
            <title>meta_len | meta_data1</title>
            <polygon fill="none" stroke="#000000" points="765.3239,-462.8 590.2371,-462.8 590.2371,-426.8 765.3239,-426.8 765.3239,-462.8"/>
            <text text-anchor="middle" x="677.7805" y="-439.4" font-family="Times,serif" font-size="18.00" fill="#000000">meta_len | meta_data1</text>
        </g>
        <!-- meta_data2 -->
        <g id="node11" class="node">
            <title>meta_data2</title>
            <polygon fill="none" stroke="#000000" points="726.2479,-357.2 629.3131,-357.2 629.3131,-321.2 726.2479,-321.2 726.2479,-357.2"/>
            <text text-anchor="middle" x="677.7805" y="-333.8" font-family="Times,serif" font-size="18.00" fill="#000000">meta_data2</text>
        </g>
        <!-- meta_len | meta_data1&#45;&gt;meta_data2 -->
        <g id="edge5" class="edge">
            <title>meta_len | meta_data1&#45;&gt;meta_data2</title>
            <path fill="none" stroke="#000000" d="M677.7805,-426.4059C677.7805,-410.1279 677.7805,-386.1223 677.7805,-367.4163"/>
            <polygon fill="#000000" stroke="#000000" points="681.2806,-367.3833 677.7805,-357.3833 674.2806,-367.3834 681.2806,-367.3833"/>
            <text text-anchor="middle" x="730.1076" y="-387.8" font-family="Times,serif" font-size="14.00" fill="#000000">everybyte ^= 0x63</text>
        </g>
        <!-- meta_data3 -->
        <g id="node12" class="node">
            <title>meta_data3</title>
            <polygon fill="none" stroke="#000000" points="726.2479,-251.6 629.3131,-251.6 629.3131,-215.6 726.2479,-215.6 726.2479,-251.6"/>
            <text text-anchor="middle" x="677.7805" y="-228.2" font-family="Times,serif" font-size="18.00" fill="#000000">meta_data3</text>
        </g>
        <!-- meta_data2&#45;&gt;meta_data3 -->
        <g id="edge6" class="edge">
            <title>meta_data2&#45;&gt;meta_data3</title>
            <path fill="none" stroke="#000000" d="M677.7805,-320.8059C677.7805,-304.5279 677.7805,-280.5223 677.7805,-261.8163"/>
            <polygon fill="#000000" stroke="#000000" points="681.2806,-261.7833 677.7805,-251.7833 674.2806,-261.7834 681.2806,-261.7833"/>
            <text text-anchor="middle" x="706.3433" y="-290.6" font-family="Times,serif" font-size="14.00" fill="#000000">header off</text>
            <text text-anchor="middle" x="706.3433" y="-273.8" font-family="Times,serif" font-size="14.00" fill="#000000">base64</text>
        </g>
        <!-- final meta_data\nmusic info(json) -->
        <g id="node13" class="node">
            <title>final meta_data\nmusic info(json)</title>
            <polygon fill="none" stroke="#000000" points="744.2574,-146.1004 611.3036,-146.1004 611.3036,-88.6996 744.2574,-88.6996 744.2574,-146.1004"/>
            <text text-anchor="middle" x="677.7805" y="-122.8" font-family="Times,serif" font-size="18.00" fill="#000000">final meta_data</text>
            <text text-anchor="middle" x="677.7805" y="-101.2" font-family="Times,serif" font-size="18.00" fill="#000000">music info(json)</text>
        </g>
        <!-- meta_data3&#45;&gt;final meta_data\nmusic info(json) -->
        <g id="edge7" class="edge">
            <title>meta_data3&#45;&gt;final meta_data\nmusic info(json)</title>
            <path fill="none" stroke="#000000" d="M677.7805,-215.4437C677.7805,-199.6806 677.7805,-176.3144 677.7805,-156.3467"/>
            <polygon fill="#000000" stroke="#000000" points="681.2806,-156.2729 677.7805,-146.2729 674.2806,-156.2729 681.2806,-156.2729"/>
            <text text-anchor="middle" x="706.9446" y="-176.6" font-family="Times,serif" font-size="14.00" fill="#000000">AES&#45;ECB</text>
        </g>
        <!-- 5 -->
        <g id="node14" class="node">
            <title>5</title>
            <polygon fill="none" stroke="#000000" points="837.7805,-462.8 783.7805,-462.8 783.7805,-426.8 837.7805,-426.8 837.7805,-462.8"/>
            <text text-anchor="middle" x="810.7805" y="-439.4" font-family="Times,serif" font-size="18.00" fill="#000000">5</text>
        </g>
        <!-- 4 | image_space -->
        <g id="node15" class="node">
            <title>4 | image_space</title>
            <polygon fill="none" stroke="#000000" points="983.8351,-462.8 855.7259,-462.8 855.7259,-426.8 983.8351,-426.8 983.8351,-462.8"/>
            <text text-anchor="middle" x="919.7805" y="-439.4" font-family="Times,serif" font-size="18.00" fill="#000000">4 | image_space</text>
        </g>
        <!-- 4 | image_size -->
        <g id="node16" class="node">
            <title>4 | image_size</title>
            <polygon fill="none" stroke="#000000" points="1118.8471,-462.8 1002.7139,-462.8 1002.7139,-426.8 1118.8471,-426.8 1118.8471,-462.8"/>
            <text text-anchor="middle" x="1060.7805" y="-439.4" font-family="Times,serif" font-size="18.00" fill="#000000">4 | image_size</text>
        </g>
        <!-- image_space &#45; image_size -->
        <g id="node17" class="node">
            <title>image_space &#45; image_size</title>
            <polygon fill="none" stroke="#000000" points="1340.1959,-462.8 1137.3651,-462.8 1137.3651,-426.8 1340.1959,-426.8 1340.1959,-462.8"/>
            <text text-anchor="middle" x="1238.7805" y="-439.4" font-family="Times,serif" font-size="18.00" fill="#000000">image_space &#45; image_size</text>
        </g>
        <!-- music_data_raw -->
        <g id="node18" class="node">
            <title>music_data_raw</title>
            <polygon fill="none" stroke="#000000" points="1489.7345,-462.8 1357.8265,-462.8 1357.8265,-426.8 1489.7345,-426.8 1489.7345,-462.8"/>
            <text text-anchor="middle" x="1423.7805" y="-439.4" font-family="Times,serif" font-size="18.00" fill="#000000">music_data_raw</text>
        </g>
        <!-- music_data_encrypted -->
        <g id="node19" class="node">
            <title>music_data_encrypted</title>
            <polygon fill="none" stroke="#000000" points="1511.7229,-357.2 1335.8381,-357.2 1335.8381,-321.2 1511.7229,-321.2 1511.7229,-357.2"/>
            <text text-anchor="middle" x="1423.7805" y="-333.8" font-family="Times,serif" font-size="18.00" fill="#000000">music_data_encrypted</text>
        </g>
        <!-- music_data_raw&#45;&gt;music_data_encrypted -->
        <g id="edge8" class="edge">
            <title>music_data_raw&#45;&gt;music_data_encrypted</title>
            <path fill="none" stroke="#000000" d="M1423.7805,-426.4059C1423.7805,-410.1279 1423.7805,-386.1223 1423.7805,-367.4163"/>
            <polygon fill="#000000" stroke="#000000" points="1427.2806,-367.3833 1423.7805,-357.3833 1420.2806,-367.3834 1427.2806,-367.3833"/>
            <text text-anchor="middle" x="1452.3657" y="-396.2" font-family="Times,serif" font-size="14.00" fill="#000000">RC4</text>
            <text text-anchor="middle" x="1452.3657" y="-379.4" font-family="Times,serif" font-size="14.00" fill="#000000">with Sbox</text>
        </g>
    </g>
</svg>
